<svg width="28" height="24" viewBox="0 0 28 24" fill="none" xmlns="http://www.w3.org/2000/svg">
<path d="M9.86862 24C11.1304 24 12.1533 23.0858 12.1533 21.9581C12.1533 20.8304 11.1304 19.9162 9.86862 19.9162C8.60685 19.9162 7.58398 20.8304 7.58398 21.9581C7.58398 23.0858 8.60685 24 9.86862 24Z" fill="#FE5F1A"/>
<path d="M21.7495 24C23.0112 24 24.0341 23.0858 24.0341 21.9581C24.0341 20.8304 23.0112 19.9162 21.7495 19.9162C20.4877 19.9162 19.4648 20.8304 19.4648 21.9581C19.4648 23.0858 20.4877 24 21.7495 24Z" fill="#FE5F1A"/>
<path d="M27.7805 3.08271C27.6954 2.98387 27.586 2.90377 27.4609 2.84856C27.3358 2.79334 27.1981 2.76447 27.0586 2.76417H5.94855L5.53732 1.5962C5.49214 1.4708 5.4137 1.35702 5.30867 1.26457C5.20365 1.17213 5.07516 1.10376 4.93417 1.06531L1.18737 0.0361854C1.07217 0.00454407 0.951112 -0.00650646 0.831125 0.00366507C0.711138 0.0138366 0.594568 0.0450309 0.48807 0.0954668C0.272987 0.197327 0.111987 0.371379 0.040488 0.579333C-0.0310108 0.787287 -0.00715174 1.01211 0.106816 1.20434C0.220785 1.39657 0.415527 1.54047 0.648201 1.60437L3.92894 2.50281L8.11438 14.3214L6.6248 15.4158L6.506 15.522C6.13763 15.9033 5.92892 16.387 5.91558 16.8906C5.90225 17.3942 6.08511 17.8863 6.43289 18.2827C6.68197 18.5534 6.99848 18.7683 7.35711 18.9101C7.71573 19.0519 8.10652 19.1168 8.4982 19.0994H23.7504C23.9928 19.0994 24.2252 19.0134 24.3966 18.8602C24.568 18.707 24.6643 18.4993 24.6643 18.2827C24.6643 18.0661 24.568 17.8583 24.3966 17.7051C24.2252 17.552 23.9928 17.4659 23.7504 17.4659H8.35199C8.24675 17.4627 8.14422 17.4353 8.05431 17.3863C7.96439 17.3374 7.89012 17.2685 7.83867 17.1864C7.78722 17.1043 7.76034 17.0117 7.76061 16.9176C7.76088 16.8235 7.7883 16.731 7.84023 16.6492L10.0426 15.0156H24.1434C24.3521 15.0211 24.5567 14.9624 24.7229 14.8495C24.8892 14.7365 25.0072 14.5761 25.0572 14.3949L27.9816 3.77696C28.0093 3.6552 28.0057 3.52937 27.9708 3.40906C27.936 3.28875 27.8709 3.17714 27.7805 3.08271Z" fill="#FE5F1A"/>
</svg>
