<svg width="20" height="24" viewBox="0 0 20 24" fill="none" xmlns="http://www.w3.org/2000/svg">
<path d="M10 0C11.0262 -8.02754e-07 12.0132 0.394435 12.7568 1.10172C13.5004 1.80901 13.9437 2.77504 13.995 3.8L14 4H19C19.2549 4.00028 19.5 4.09788 19.6854 4.27285C19.8707 4.44782 19.9822 4.68695 19.9972 4.94139C20.0121 5.19584 19.9293 5.44638 19.7657 5.64183C19.6021 5.83729 19.3701 5.9629 19.117 5.993L19 6H18.151L16.971 20.553C16.8949 21.4921 16.4681 22.3681 15.7754 23.0068C15.0828 23.6455 14.1752 24.0001 13.233 24H6.767C5.82484 24.0001 4.91719 23.6455 4.22457 23.0068C3.53195 22.3681 3.10513 21.4921 3.029 20.553L1.848 6H1C0.755067 5.99997 0.518663 5.91004 0.335628 5.74728C0.152593 5.58453 0.0356572 5.36025 0.00699997 5.117L0 5C3.23106e-05 4.75507 0.089956 4.51866 0.252715 4.33563C0.415474 4.15259 0.639749 4.03566 0.883 4.007L1 4H6C6 2.93913 6.42143 1.92172 7.17157 1.17157C7.92172 0.421427 8.93913 0 10 0ZM7.75 9.25C7.56876 9.25001 7.39366 9.31564 7.25707 9.43477C7.12048 9.55389 7.03165 9.71845 7.007 9.898L7 10V18L7.007 18.102C7.0317 18.2815 7.12055 18.446 7.25714 18.5651C7.39372 18.6842 7.5688 18.7498 7.75 18.7498C7.9312 18.7498 8.10628 18.6842 8.24286 18.5651C8.37945 18.446 8.4683 18.2815 8.493 18.102L8.5 18V10L8.493 9.898C8.46835 9.71845 8.37952 9.55389 8.24293 9.43477C8.10634 9.31564 7.93124 9.25001 7.75 9.25ZM12.25 9.25C12.0688 9.25001 11.8937 9.31564 11.7571 9.43477C11.6205 9.55389 11.5316 9.71845 11.507 9.898L11.5 10V18L11.507 18.102C11.5317 18.2815 11.6206 18.446 11.7571 18.5651C11.8937 18.6842 12.0688 18.7498 12.25 18.7498C12.4312 18.7498 12.6063 18.6842 12.7429 18.5651C12.8794 18.446 12.9683 18.2815 12.993 18.102L13 18V10L12.993 9.898C12.9684 9.71845 12.8795 9.55389 12.7429 9.43477C12.6063 9.31564 12.4312 9.25001 12.25 9.25ZM10 2C9.49542 1.99984 9.00943 2.19041 8.63945 2.5335C8.26947 2.87659 8.04284 3.34684 8.005 3.85L8 4H12L11.995 3.85C11.9572 3.34684 11.7305 2.87659 11.3605 2.5335C10.9906 2.19041 10.5046 1.99984 10 2Z" fill="#FE5F1A"/>
</svg>
