<svg width="30" height="20" viewBox="0 0 30 20" fill="none" xmlns="http://www.w3.org/2000/svg">
<path d="M6.95322 0L11.2703 4.01759L8.22256 9.17672L14.6489 8.18523L17.5738 14.2616L30 0.24041L6.95322 0ZM6.16294 8.69751L7.35915 7.85285L5.81513 8.27316L5.65389 8.07955L6.29418 7.54629L5.4589 7.83591C2.26493 8.90323 4.25245e-06 11.5631 4.25245e-06 14.6811C-0.00115523 15.6774 0.234809 16.6633 0.693351 17.578C1.15189 18.4928 1.8233 19.3171 2.66617 20C1.93731 18.9003 1.55501 17.6558 1.55714 16.3898C1.55714 13.3105 3.82301 10.5659 6.95229 9.48651L7.34884 8.66363L6.41137 9.01618L6.14794 8.70961L6.16294 8.69751ZM11.6171 6.57981L13.6149 3.54645L25.3623 1.18107L11.6171 6.57981Z" fill="#A73504" fill-opacity="0.5"/>
</svg>
