<svg width="28" height="24" viewBox="0 0 28 24" fill="none" xmlns="http://www.w3.org/2000/svg">
<path d="M27.3226 4.91832C26.8881 3.95586 26.2617 3.08369 25.4784 2.35064C24.6945 1.61539 23.7702 1.0311 22.7558 0.62954C21.704 0.211494 20.5759 -0.0024864 19.4369 2.1797e-05C17.8391 2.1797e-05 16.2801 0.418667 14.9253 1.20944C14.6012 1.39861 14.2933 1.60638 14.0016 1.83276C13.7099 1.60638 13.402 1.39861 13.0779 1.20944C11.7231 0.418667 10.1641 2.1797e-05 8.56626 2.1797e-05C7.41566 2.1797e-05 6.30072 0.210895 5.24736 0.62954C4.22965 1.03268 3.31242 1.61258 2.52483 2.35064C1.74047 3.08287 1.1139 3.95524 0.680633 4.91832C0.230119 5.91997 0 6.98364 0 8.07832C0 9.11097 0.220396 10.187 0.657946 11.2817C1.02419 12.1965 1.54925 13.1455 2.22016 14.1037C3.28325 15.6201 4.74499 17.2017 6.56001 18.8049C9.56776 21.4625 12.5463 23.2984 12.6727 23.3728L13.4409 23.8442C13.7812 24.0519 14.2188 24.0519 14.5591 23.8442L15.3272 23.3728C15.4536 23.2953 18.429 21.4625 21.44 18.8049C23.255 17.2017 24.7167 15.6201 25.7798 14.1037C26.4507 13.1455 26.979 12.1965 27.342 11.2817C27.7796 10.187 28 9.11097 28 8.07832C28.0032 6.98364 27.7731 5.91997 27.3226 4.91832Z" fill="#FE5F1A"/>
</svg>
