<svg width="30" height="24" viewBox="0 0 30 24" fill="none" xmlns="http://www.w3.org/2000/svg">
<path d="M29.2742 4.91832C28.8087 3.95586 28.1375 3.08369 27.2983 2.35064C26.4583 1.61539 25.4681 1.0311 24.3813 0.62954C23.2543 0.211494 22.0456 -0.0024864 20.8253 2.1797e-05C19.1133 2.1797e-05 17.443 0.418667 15.9914 1.20944C15.6442 1.39861 15.3143 1.60638 15.0017 1.83276C14.6892 1.60638 14.3593 1.39861 14.012 1.20944C12.5605 0.418667 10.8901 2.1797e-05 9.17813 2.1797e-05C7.94535 2.1797e-05 6.75077 0.210895 5.62217 0.62954C4.53177 1.03268 3.54902 1.61258 2.70517 2.35064C1.86479 3.08287 1.19346 3.95524 0.72925 4.91832C0.246556 5.91997 0 6.98364 0 8.07832C0 9.11097 0.236138 10.187 0.704942 11.2817C1.09735 12.1965 1.65991 13.1455 2.37874 14.1037C3.51776 15.6201 5.08392 17.2017 7.02858 18.8049C10.2512 21.4625 13.4425 23.2984 13.5779 23.3728L14.401 23.8442C14.7656 24.0519 15.2344 24.0519 15.599 23.8442L16.422 23.3728C16.5575 23.2953 19.7453 21.4625 22.9714 18.8049C24.916 17.2017 26.4822 15.6201 27.6212 14.1037C28.3401 13.1455 28.9061 12.1965 29.295 11.2817C29.7638 10.187 30 9.11097 30 8.07832C30.0034 6.98364 29.7569 5.91997 29.2742 4.91832ZM15.0017 21.3912C15.0017 21.3912 2.63919 14.3177 2.63919 8.07832C2.63919 4.91832 5.56661 2.35684 9.17813 2.35684C11.7166 2.35684 13.9183 3.62207 15.0017 5.47031C16.0852 3.62207 18.2868 2.35684 20.8253 2.35684C24.4368 2.35684 27.3642 4.91832 27.3642 8.07832C27.3642 14.3177 15.0017 21.3912 15.0017 21.3912Z" fill="#FE5F1A"/>
</svg>
